<svg width="152" height="243" viewBox="0 0 152 243" fill="none" xmlns="http://www.w3.org/2000/svg">
<path d="M146.251 242.172H5.54076C2.97486 242.172 0.895096 240.092 0.895096 237.526V5.03935C0.895096 2.47344 2.97486 0.393677 5.54076 0.393677H146.249C148.815 0.393677 150.895 2.47344 150.895 5.03935V237.526C150.895 240.092 148.815 242.172 146.251 242.172Z" fill="#0D1418"/>
<path d="M150.895 27.4093H0.895096V5.87484C0.895096 2.84862 3.34858 0.395142 6.3748 0.395142H145.62C148.533 0.395142 150.895 2.75596 150.895 5.66976V27.4093Z" fill="#262B30"/>
<path d="M145.863 242.172C145.853 242.127 146.57 242.239 147.797 241.742C148.397 241.484 149.101 241.027 149.719 240.278C150.316 239.524 150.816 238.449 150.814 237.169C150.798 231.994 150.773 224.386 150.742 214.593C150.711 194.973 150.669 166.605 150.615 131.557C150.591 96.4959 150.562 54.7532 150.53 8.40435L150.529 6.22888C150.532 5.48295 150.544 4.81451 150.35 4.16278C149.999 2.85476 149.019 1.73817 147.782 1.1791C147.162 0.895017 146.488 0.755249 145.795 0.762845L143.586 0.764363C142.111 0.764363 140.631 0.765881 139.149 0.765881C133.215 0.767401 127.212 0.770436 121.148 0.771955C109.016 0.774993 96.6296 0.778037 84.0204 0.782595C58.8004 0.785633 32.6886 0.787148 5.94486 0.790187C4.39225 0.778033 2.88522 1.59384 2.04663 2.89123C1.63493 3.53688 1.36148 4.27824 1.30982 5.04543C1.27032 5.81262 1.29919 6.69071 1.29007 7.50803C1.29007 10.832 1.29007 14.1454 1.29007 17.4481C1.29007 24.0535 1.28855 30.6148 1.28855 37.1276C1.28704 50.1546 1.28399 62.9918 1.28248 75.604C1.27488 100.83 1.26728 125.161 1.25969 148.341C1.24753 171.519 1.23538 193.546 1.22323 214.16C1.22019 219.313 1.21563 224.378 1.2126 229.35C1.21108 231.837 1.20804 234.3 1.20652 236.74C1.0075 239.106 2.70443 241.318 4.94371 241.762C6.0193 241.953 7.27719 241.832 8.4424 241.868C9.62585 241.87 10.8047 241.87 11.976 241.871C14.3186 241.873 16.6384 241.876 18.9309 241.877C23.5173 241.882 28.005 241.887 32.3863 241.891C67.4354 241.944 95.7986 241.987 115.417 242.017C125.21 242.049 132.817 242.075 137.991 242.092C140.561 242.108 142.524 242.122 143.861 242.131C145.186 242.145 145.863 242.172 145.863 242.172C145.863 242.172 145.186 242.199 143.863 242.213C142.526 242.222 140.561 242.234 137.993 242.253C132.818 242.269 125.212 242.295 115.419 242.327C95.8002 242.357 67.4354 242.4 32.3878 242.453C28.005 242.458 23.5188 242.462 18.9324 242.467C16.6384 242.468 14.3201 242.471 11.9775 242.473C10.8063 242.474 9.62737 242.474 8.44392 242.476C7.24832 242.435 6.10437 242.576 4.81762 242.362C3.57341 242.102 2.4325 241.372 1.66227 240.346C0.88141 239.337 0.50921 237.985 0.585169 236.741C0.58365 234.301 0.582134 231.839 0.579096 229.352C0.576058 224.379 0.5715 219.314 0.568462 214.161C0.557827 193.548 0.545671 171.521 0.531998 148.343C0.524402 125.163 0.516807 100.832 0.509211 75.6055C0.507692 62.9917 0.504651 50.1561 0.503132 37.1291C0.503132 30.6149 0.501614 24.0535 0.501614 17.4496C0.501614 14.1469 0.501614 10.8335 0.501614 7.50955C0.512248 6.66489 0.480345 5.87794 0.522882 4.98314C0.585169 4.08682 0.904198 3.21481 1.3873 2.45977C2.36262 0.942104 4.13854 -0.016496 5.94638 0.000215009C32.6901 0.00325338 58.8019 0.00628758 84.0219 0.00780677C96.6311 0.0108451 109.019 0.0138901 121.149 0.0169285C127.215 0.0184477 133.216 0.0214827 139.15 0.0230019C140.633 0.0230019 142.113 0.0245202 143.588 0.0245202H145.797C146.576 0.0169243 147.373 0.177959 148.086 0.507623C149.519 1.15631 150.649 2.44763 151.054 3.96377C151.279 4.71729 151.264 5.52549 151.26 6.22736L151.258 8.40283C151.226 54.7517 151.197 96.4943 151.173 131.556C151.12 166.605 151.077 194.971 151.047 214.591C151.013 224.385 150.989 231.994 150.971 237.169C150.959 238.491 150.43 239.591 149.809 240.354C149.166 241.112 148.441 241.568 147.826 241.817C147.206 242.073 146.697 242.124 146.368 242.166C146.034 242.178 145.863 242.172 145.863 242.172Z" fill="#262B30"/>
<path d="M23.0053 16.0079C23.0053 18.4523 21.0243 20.4333 18.5799 20.4333C16.1356 20.4333 14.1545 18.4523 14.1545 16.0079C14.1545 13.5635 16.1356 11.5825 18.5799 11.5825C21.0243 11.5825 23.0053 13.5635 23.0053 16.0079Z" fill="#0D1418"/>
<path d="M32.1949 20.4333C34.6389 20.4333 36.6203 18.452 36.6203 16.0079C36.6203 13.5638 34.6389 11.5825 32.1949 11.5825C29.7508 11.5825 27.7695 13.5638 27.7695 16.0079C27.7695 18.452 29.7508 20.4333 32.1949 20.4333Z" fill="#0D1418"/>
<path d="M45.8113 20.4333C48.2554 20.4333 50.2367 18.452 50.2367 16.0079C50.2367 13.5638 48.2554 11.5825 45.8113 11.5825C43.3673 11.5825 41.3859 13.5638 41.3859 16.0079C41.3859 18.452 43.3673 20.4333 45.8113 20.4333Z" fill="#0D1418"/>
<path d="M66.1654 64.04H38.542C36.8861 64.04 35.5447 62.6986 35.5447 61.0427C35.5447 59.3867 36.8861 58.0453 38.542 58.0453H66.1654C67.8213 58.0453 69.1627 59.3867 69.1627 61.0427C69.1627 62.6986 67.8213 64.04 66.1654 64.04Z" fill="#1BEFA0"/>
<path d="M66.1654 79.7286H38.542C36.8861 79.7286 35.5447 78.3871 35.5447 76.7312C35.5447 75.0753 36.8861 73.7339 38.542 73.7339H66.1654C67.8213 73.7339 69.1627 75.0753 69.1627 76.7312C69.1627 78.3871 67.8213 79.7286 66.1654 79.7286Z" fill="#262B30"/>
<path d="M66.9569 122.702H39.332C37.6761 122.702 36.3346 121.36 36.3346 119.704C36.3346 118.049 37.6761 116.707 39.332 116.707H66.9554C68.6113 116.707 69.9527 118.049 69.9527 119.704C69.9527 121.36 68.6113 122.702 66.9569 122.702Z" fill="#262B30"/>
<path d="M66.1654 95.9429H38.542C36.8861 95.9429 35.5447 94.6014 35.5447 92.9455C35.5447 91.2896 36.8861 89.9481 38.542 89.9481H66.1654C67.8213 89.9481 69.1627 91.2896 69.1627 92.9455C69.1627 94.5999 67.8213 95.9429 66.1654 95.9429Z" fill="#EF3E36"/>
<path d="M66.1654 186.351H38.542C36.8861 186.351 35.5447 185.01 35.5447 183.354C35.5447 181.699 36.8861 180.356 38.542 180.356H66.1654C67.8213 180.356 69.1627 181.698 69.1627 183.354C69.1627 185.01 67.8213 186.351 66.1654 186.351Z" fill="#EF3E36"/>
<path d="M110.421 64.04H82.7974C81.1415 64.04 79.8001 62.6986 79.8001 61.0427C79.8001 59.3867 81.1415 58.0453 82.7974 58.0453H110.421C112.077 58.0453 113.418 59.3867 113.418 61.0427C113.418 62.6986 112.077 64.04 110.421 64.04Z" fill="#EEAA2B"/>
<path d="M140.334 79.7286H82.5407C81.0276 79.7286 79.8001 78.3871 79.8001 76.7312C79.8001 75.0753 81.0261 73.7339 82.5407 73.7339H140.334C141.847 73.7339 143.073 75.0753 143.073 76.7312C143.073 78.3871 141.847 79.7286 140.334 79.7286Z" fill="#1BEFA0"/>
<path d="M138.778 95.9429H80.587C79.0314 95.9429 77.7689 94.6014 77.7689 92.9455C77.7689 91.2896 79.0298 89.9481 80.587 89.9481H138.778C140.334 89.9481 141.596 91.2896 141.596 92.9455C141.596 94.5999 140.335 95.9429 138.778 95.9429Z" fill="#262B30"/>
<path d="M96.742 109.053H38.5496C36.994 109.053 35.7315 107.712 35.7315 106.056C35.7315 104.402 36.9925 103.059 38.5496 103.059H96.7405C98.2962 103.059 99.5586 104.4 99.5586 106.056C99.5586 107.71 98.2977 109.053 96.742 109.053Z" fill="#262B30"/>
<path d="M25.0015 61.0441C25.0015 62.7258 23.6388 64.0885 21.9571 64.0885C20.2753 64.0885 18.9126 62.7258 18.9126 61.0441C18.9126 59.3624 20.2753 57.9996 21.9571 57.9996C23.6388 57.9996 25.0015 59.3624 25.0015 61.0441Z" fill="#EEAA2B"/>
<path d="M25.0015 46.03C25.0015 47.7118 23.6388 49.0745 21.9571 49.0745C20.2753 49.0745 18.9126 47.7118 18.9126 46.03C18.9126 44.3483 20.2753 42.9856 21.9571 42.9856C23.6388 42.9856 25.0015 44.3483 25.0015 46.03Z" fill="#EEAA2B"/>
<path d="M25.0015 76.6842C25.0015 78.366 23.6388 79.7287 21.9571 79.7287C20.2753 79.7287 18.9126 78.366 18.9126 76.6842C18.9126 75.0025 20.2753 73.6398 21.9571 73.6398C23.6388 73.6398 25.0015 75.004 25.0015 76.6842Z" fill="#EEAA2B"/>
<path d="M25.0015 92.9456C25.0015 94.6273 23.6388 95.99 21.9571 95.99C20.2753 95.99 18.9126 94.6273 18.9126 92.9456C18.9126 91.2638 20.2753 89.9011 21.9571 89.9011C23.6388 89.9011 25.0015 91.2638 25.0015 92.9456Z" fill="#EEAA2B"/>
<path d="M66.9569 166.579H39.332C37.6761 166.579 36.3346 165.238 36.3346 163.582C36.3346 161.926 37.6761 160.584 39.332 160.584H66.9554C68.6113 160.584 69.9527 161.926 69.9527 163.582C69.9527 165.236 68.6113 166.579 66.9569 166.579Z" fill="#262B30"/>
<path d="M66.1654 139.818H38.542C36.8861 139.818 35.5447 138.477 35.5447 136.821C35.5447 135.167 36.8861 133.824 38.542 133.824H66.1654C67.8213 133.824 69.1627 135.165 69.1627 136.821C69.1627 138.475 67.8213 139.818 66.1654 139.818Z" fill="#EF3E36"/>
<path d="M138.778 139.818H80.587C79.0314 139.818 77.7689 138.477 77.7689 136.821C77.7689 135.167 79.0298 133.824 80.587 133.824H138.778C140.334 133.824 141.596 135.165 141.596 136.821C141.596 138.475 140.335 139.818 138.778 139.818Z" fill="#262B30"/>
<path d="M96.742 152.929H38.5496C36.994 152.929 35.7315 151.588 35.7315 149.932C35.7315 148.276 36.9925 146.934 38.5496 146.934H96.7405C98.2962 146.934 99.5586 148.276 99.5586 149.932C99.5586 151.588 98.2977 152.929 96.742 152.929Z" fill="#262B30"/>
<path d="M25.0015 136.821C25.0015 138.503 23.6388 139.866 21.9571 139.866C20.2753 139.866 18.9126 138.503 18.9126 136.821C18.9126 135.139 20.2753 133.777 21.9571 133.777C23.6388 133.777 25.0015 135.139 25.0015 136.821Z" fill="#EEAA2B"/>
<path d="M54.4585 49.6504H37.1641C36.3605 49.6504 35.7087 48.9986 35.7087 48.195V45.3253C35.7087 44.5216 36.3605 43.8699 37.1641 43.8699H54.4585C55.2622 43.8699 55.9139 44.5216 55.9139 45.3253V48.195C55.9139 48.9986 55.2622 49.6504 54.4585 49.6504Z" fill="#EEAA2B"/>
<path d="M66.1654 202.327H38.542C36.8861 202.327 35.5447 200.985 35.5447 199.329C35.5447 197.675 36.8861 196.332 38.542 196.332H66.1654C67.8213 196.332 69.1627 197.674 69.1627 199.329C69.1627 200.985 67.8213 202.327 66.1654 202.327Z" fill="#1BEFA0"/>
<path d="M110.421 202.327H82.7974C81.1415 202.327 79.8001 200.985 79.8001 199.329C79.8001 197.675 81.1415 196.332 82.7974 196.332H110.421C112.077 196.332 113.418 197.674 113.418 199.329C113.418 200.985 112.077 202.327 110.421 202.327Z" fill="#EEAA2B"/>
<path d="M25.0015 199.329C25.0015 201.011 23.6388 202.374 21.9571 202.374C20.2753 202.374 18.9126 201.011 18.9126 199.329C18.9126 197.648 20.2753 196.285 21.9571 196.285C23.6388 196.285 25.0015 197.648 25.0015 199.329Z" fill="#EEAA2B"/>
<path d="M25.0015 213.768C25.0015 215.45 23.6388 216.812 21.9571 216.812C20.2753 216.812 18.9126 215.45 18.9126 213.768C18.9126 212.086 20.2753 210.723 21.9571 210.723C23.6388 210.723 25.0015 212.086 25.0015 213.768Z" fill="#EEAA2B"/>
<path d="M54.4585 217.387H37.1641C36.3605 217.387 35.7087 216.735 35.7087 215.931V213.062C35.7087 212.258 36.3605 211.606 37.1641 211.606H54.4585C55.2622 211.606 55.9139 212.258 55.9139 213.062V215.931C55.9139 216.735 55.2622 217.387 54.4585 217.387Z" fill="#EEAA2B"/>
</svg>
