<svg xmlns="http://www.w3.org/2000/svg" width="144" height="76" fill="none" viewBox="0 0 144 76"><path fill="#0D1418" d="M139.554 75.7434H3.92882C2.17882 75.7434 0.759827 74.3244 0.759827 72.5744V3.42841C0.759827 1.67841 2.17882 0.259399 3.92882 0.259399H140.174C141.924 0.259399 143.343 1.67841 143.343 3.42841V71.9544C143.344 74.0474 141.647 75.7434 139.554 75.7434Z"/><path fill="#262B30" d="M143.344 16.4694H0.759827V3.73241C0.759827 1.81441 2.31482 0.259399 4.23282 0.259399H139.87C141.788 0.259399 143.343 1.81441 143.343 3.73241V16.4694H143.344Z"/><path fill="#262B30" d="M139.332 75.7434C139.329 75.7194 139.715 75.7574 140.42 75.5624C141.099 75.3644 142.166 74.8344 142.839 73.5664C143.177 72.9374 143.324 72.1494 143.279 71.2654C143.275 70.3814 143.271 69.4154 143.267 68.3694C143.26 66.2744 143.252 63.8594 143.243 61.1424C143.223 50.2564 143.195 34.5244 143.16 15.0864C143.157 12.6554 143.154 10.1674 143.151 7.62341C143.15 6.35141 143.148 5.06541 143.147 3.76541C143.26 2.50241 142.564 1.26241 141.414 0.739408C140.843 0.456408 140.228 0.446416 139.543 0.462416C138.873 0.463416 138.2 0.463415 137.523 0.464415C136.17 0.465415 134.804 0.467412 133.425 0.468412C130.667 0.470412 127.858 0.473416 125 0.475416C113.567 0.483416 101.352 0.491418 88.4978 0.499418C62.7878 0.505418 34.5248 0.512414 4.85682 0.520414C4.38082 0.521414 3.94881 0.506418 3.53481 0.611418C3.11781 0.709418 2.72181 0.892415 2.37481 1.14342C1.67881 1.64442 1.19582 2.42741 1.06582 3.27041C0.998818 3.67941 1.02682 4.14641 1.02082 4.60841V5.98741V8.73941C1.02082 12.4024 1.01981 16.0424 1.01981 19.6554C1.01881 26.8804 1.01682 34.0004 1.01582 40.9964C1.01382 47.9924 1.01182 54.8644 1.00982 61.5944C1.00882 64.9594 1.00682 68.2894 1.00582 71.5804C0.938821 73.1534 1.91781 74.6664 3.35981 75.2244C4.07181 75.5354 4.83981 75.5084 5.66381 75.5024C6.47281 75.5024 7.27881 75.5034 8.08181 75.5034C33.7918 75.5244 56.9458 75.5434 76.3938 75.5594C95.8318 75.5944 111.563 75.6224 122.447 75.6424C127.876 75.6634 132.094 75.6804 134.968 75.6914C136.391 75.7024 137.479 75.7114 138.224 75.7174C138.956 75.7254 139.332 75.7434 139.332 75.7434C139.332 75.7434 138.956 75.7614 138.223 75.7704C137.478 75.7764 136.39 75.7844 134.967 75.7964C132.093 75.8074 127.875 75.8244 122.446 75.8454C111.561 75.8654 95.8298 75.8934 76.3928 75.9284C56.9448 75.9444 33.7918 75.9634 8.08082 75.9844C7.27682 75.9854 6.47082 75.9854 5.66282 75.9854C4.88082 75.9924 3.97981 76.0254 3.17681 75.6744C1.55081 75.0544 0.440815 73.3194 0.515815 71.5814C0.514815 68.2894 0.512817 64.9604 0.511817 61.5954C0.509817 54.8654 0.507821 47.9934 0.505821 40.9974C0.504821 34.0014 0.502823 26.8824 0.501823 19.6564C0.501823 16.0434 0.500816 12.4044 0.500816 8.74042V5.98842V4.60942C0.508816 4.15242 0.474811 3.69242 0.551811 3.18942C0.702811 2.20942 1.26281 1.30241 2.06881 0.72241C2.46981 0.43141 2.92981 0.219421 3.41381 0.105421C3.90181 -0.016579 4.40681 0.00141002 4.85581 0.000410017C34.5228 0.00741002 62.7868 0.0144214 88.4968 0.0214214C101.351 0.0294214 113.566 0.0374082 124.999 0.0454082C127.857 0.0484082 130.666 0.050412 133.424 0.052412C134.803 0.053412 136.169 0.0554098 137.522 0.0564098C138.199 0.0574098 138.872 0.0574087 139.542 0.0584087C140.187 0.0414087 140.95 0.0534089 141.583 0.377409C142.886 0.953409 143.671 2.42441 143.541 3.76741C143.54 5.06741 143.538 6.35341 143.537 7.62541C143.534 10.1694 143.531 12.6584 143.528 15.0884C143.493 34.5264 143.465 50.2584 143.445 61.1444C143.436 63.8614 143.428 66.2764 143.421 68.3714C143.417 69.4174 143.412 70.3834 143.409 71.2674C143.41 71.7064 143.404 72.1384 143.323 72.5364C143.233 72.9324 143.104 73.2974 142.932 73.6174C142.225 74.9114 141.127 75.4324 140.435 75.6154C139.716 75.7944 139.332 75.7434 139.332 75.7434Z"/><path fill="#0D1418" d="M11.3708 12.2824C12.8371 12.2824 14.0258 11.0937 14.0258 9.62741C14.0258 8.16109 12.8371 6.97241 11.3708 6.97241C9.9045 6.97241 8.71582 8.16109 8.71582 9.62741C8.71582 11.0937 9.9045 12.2824 11.3708 12.2824Z"/><path fill="#0D1418" d="M22.1958 9.62741C22.1958 11.0934 21.0068 12.2824 19.5408 12.2824C18.0748 12.2824 16.8858 11.0934 16.8858 9.62741C16.8858 8.16141 18.0748 6.97241 19.5408 6.97241C21.0068 6.97241 22.1958 8.16141 22.1958 9.62741Z"/><path fill="#0D1418" d="M27.7108 12.2824C29.1771 12.2824 30.3658 11.0937 30.3658 9.62741C30.3658 8.16109 29.1771 6.97241 27.7108 6.97241C26.2445 6.97241 25.0558 8.16109 25.0558 9.62741C25.0558 11.0937 26.2445 12.2824 27.7108 12.2824Z"/><path fill="#1BEFA0" d="M41.8448 39.3124H25.2698C24.2768 39.3124 23.4718 38.5074 23.4718 37.5144C23.4718 36.5214 24.2768 35.7164 25.2698 35.7164H41.8448C42.8378 35.7164 43.6428 36.5214 43.6428 37.5144C43.6428 38.5074 42.8378 39.3124 41.8448 39.3124Z"/><path fill="#262B30" d="M41.8448 48.7254H25.2698C24.2768 48.7254 23.4718 47.9204 23.4718 46.9274C23.4718 45.9344 24.2768 45.1294 25.2698 45.1294H41.8448C42.8378 45.1294 43.6428 45.9344 43.6428 46.9274C43.6428 47.9204 42.8378 48.7254 41.8448 48.7254Z"/><path fill="#262B30" d="M129.342 39.3124H81.2658C80.2728 39.3124 79.4678 38.5074 79.4678 37.5144C79.4678 36.5214 80.2728 35.7164 81.2658 35.7164H129.342C130.335 35.7164 131.14 36.5214 131.14 37.5144C131.14 38.5074 130.335 39.3124 129.342 39.3124Z"/><path fill="#EF3E36" d="M41.8448 58.4534H25.2698C24.2768 58.4534 23.4718 57.6484 23.4718 56.6554C23.4718 55.6624 24.2768 54.8574 25.2698 54.8574H41.8448C42.8378 54.8574 43.6428 55.6624 43.6428 56.6554C43.6428 57.6484 42.8378 58.4534 41.8448 58.4534Z"/><path fill="#EF3E36" d="M117.873 48.7254H101.298C100.305 48.7254 99.4999 47.9204 99.4999 46.9274C99.4999 45.9344 100.305 45.1294 101.298 45.1294H117.873C118.866 45.1294 119.671 45.9344 119.671 46.9274C119.672 47.9204 118.866 48.7254 117.873 48.7254Z"/><path fill="#EEAA2B" d="M68.3998 39.3124H51.8238C50.8308 39.3124 50.0258 38.5074 50.0258 37.5144C50.0258 36.5214 50.8308 35.7164 51.8238 35.7164H68.3988C69.3918 35.7164 70.1968 36.5214 70.1968 37.5144C70.1978 38.5074 69.3928 39.3124 68.3998 39.3124Z"/><path fill="#1BEFA0" d="M89.7558 48.7254H51.8238C50.8308 48.7254 50.0258 47.9204 50.0258 46.9274C50.0258 45.9344 50.8308 45.1294 51.8238 45.1294H89.7558C90.7488 45.1294 91.5538 45.9344 91.5538 46.9274C91.5538 47.9204 90.7488 48.7254 89.7558 48.7254Z"/><path fill="#262B30" d="M126.962 58.4534H51.7439C50.7959 58.4534 50.0269 57.6484 50.0269 56.6554C50.0269 55.6624 50.7959 54.8574 51.7439 54.8574H126.962C127.91 54.8574 128.679 55.6624 128.679 56.6554C128.679 57.6484 127.91 58.4534 126.962 58.4534Z"/><path fill="#262B30" d="M88.9658 65.3064H51.8238C50.8308 65.3064 50.0258 64.5015 50.0258 63.5085C50.0258 62.5155 50.8308 61.7104 51.8238 61.7104H88.9648C89.9578 61.7104 90.7628 62.5155 90.7628 63.5085C90.7638 64.5005 89.9588 65.3064 88.9658 65.3064Z"/><path fill="#EEAA2B" d="M17.1448 37.5135C17.1448 38.5225 16.3268 39.3405 15.3178 39.3405C14.3088 39.3405 13.4908 38.5225 13.4908 37.5135C13.4908 36.5045 14.3088 35.6865 15.3178 35.6865C16.3268 35.6875 17.1448 36.5045 17.1448 37.5135Z"/><path fill="#EEAA2B" d="M17.1448 28.5055C17.1448 29.5145 16.3268 30.3325 15.3178 30.3325C14.3088 30.3325 13.4908 29.5145 13.4908 28.5055C13.4908 27.4965 14.3088 26.6785 15.3178 26.6785C16.3268 26.6785 17.1448 27.4965 17.1448 28.5055Z"/><path fill="#EEAA2B" d="M15.3178 48.7265C16.3269 48.7265 17.1448 47.9085 17.1448 46.8995C17.1448 45.8905 16.3269 45.0725 15.3178 45.0725C14.3088 45.0725 13.4908 45.8905 13.4908 46.8995C13.4908 47.9085 14.3088 48.7265 15.3178 48.7265Z"/><path fill="#EEAA2B" d="M15.3178 58.4825C16.3269 58.4825 17.1448 57.6645 17.1448 56.6555C17.1448 55.6465 16.3269 54.8285 15.3178 54.8285C14.3088 54.8285 13.4908 55.6465 13.4908 56.6555C13.4908 57.6645 14.3088 58.4825 15.3178 58.4825Z"/><path fill="#EEAA2B" d="M35.0138 29.8145H24.8068C24.2778 29.8145 23.8488 29.3855 23.8488 28.8565V27.3035C23.8488 26.7745 24.2778 26.3455 24.8068 26.3455H35.0138C35.5428 26.3455 35.9718 26.7745 35.9718 27.3035V28.8565C35.9718 29.3855 35.5428 29.8145 35.0138 29.8145Z"/></svg>