<svg width="136" height="22" viewBox="0 0 136 22" fill="none" xmlns="http://www.w3.org/2000/svg">
<path d="M9.548 17.256L0.284 11.256V8.808L9.548 2.808V6L3.188 9.984V10.08L9.548 14.064V17.256ZM111.573 21.84L119.469 0.959999H122.421L114.525 21.84H111.573ZM126.54 17.256V14.064L132.9 10.08V9.984L126.54 6V2.808L135.804 8.808V11.256L126.54 17.256Z" fill="#1BEFA0"/>
<path d="M19.0426 18.288C17.9866 18.288 16.9386 18.096 15.8986 17.712C14.8746 17.328 13.9386 16.768 13.0906 16.032L15.1306 13.608C15.7226 14.088 16.3706 14.48 17.0746 14.784C17.7946 15.088 18.5306 15.24 19.2826 15.24C20.0346 15.24 20.5866 15.112 20.9386 14.856C21.3066 14.6 21.4906 14.272 21.4906 13.872C21.4906 13.504 21.3946 13.216 21.2026 13.008C21.0106 12.784 20.7306 12.592 20.3626 12.432C19.9946 12.256 19.5626 12.064 19.0666 11.856L17.0506 10.992C16.4746 10.768 15.9306 10.472 15.4186 10.104C14.9066 9.72 14.4906 9.256 14.1706 8.712C13.8666 8.152 13.7146 7.488 13.7146 6.72C13.7146 5.856 13.9546 5.08 14.4346 4.392C14.9306 3.688 15.6026 3.128 16.4506 2.712C17.3146 2.28 18.3146 2.064 19.4506 2.064C20.3946 2.064 21.3226 2.24 22.2346 2.592C23.1466 2.944 23.9546 3.456 24.6586 4.128L22.8586 6.36C22.3146 5.96 21.7706 5.656 21.2266 5.448C20.6826 5.224 20.0266 5.112 19.2586 5.112C18.6826 5.112 18.2106 5.232 17.8426 5.472C17.4746 5.712 17.2906 6.064 17.2906 6.528C17.2906 6.832 17.4026 7.088 17.6266 7.296C17.8506 7.504 18.1546 7.688 18.5386 7.848C18.9226 8.008 19.3626 8.184 19.8586 8.376L21.7546 9.192C22.4586 9.448 23.0586 9.768 23.5546 10.152C24.0506 10.52 24.4346 10.976 24.7066 11.52C24.9786 12.064 25.1146 12.704 25.1146 13.44C25.1146 14.304 24.8746 15.104 24.3946 15.84C23.9306 16.576 23.2426 17.168 22.3306 17.616C21.4346 18.064 20.3386 18.288 19.0426 18.288ZM33.4813 18.288C32.2333 18.288 31.1373 17.976 30.1933 17.352C29.2493 16.728 28.5133 15.816 27.9853 14.616C27.4573 13.4 27.1933 11.896 27.1933 10.104C27.1933 8.36 27.4573 6.896 27.9853 5.712C28.5133 4.512 29.2493 3.608 30.1933 3C31.1373 2.376 32.2333 2.064 33.4813 2.064C34.7293 2.064 35.8253 2.376 36.7693 3C37.7133 3.608 38.4493 4.512 38.9773 5.712C39.5053 6.896 39.7693 8.36 39.7693 10.104C39.7693 11.896 39.5053 13.4 38.9773 14.616C38.4493 15.816 37.7133 16.728 36.7693 17.352C35.8253 17.976 34.7293 18.288 33.4813 18.288ZM33.4813 15.24C34.0253 15.24 34.4973 15.048 34.8973 14.664C35.2973 14.264 35.6013 13.688 35.8093 12.936C36.0333 12.168 36.1453 11.224 36.1453 10.104C36.1453 9.016 36.0333 8.104 35.8093 7.368C35.6013 6.632 35.2973 6.072 34.8973 5.688C34.4973 5.304 34.0253 5.112 33.4813 5.112C32.9373 5.112 32.4653 5.304 32.0653 5.688C31.6653 6.072 31.3533 6.632 31.1293 7.368C30.9213 8.104 30.8173 9.016 30.8173 10.104C30.8173 11.224 30.9213 12.168 31.1293 12.936C31.3533 13.688 31.6653 14.264 32.0653 14.664C32.4653 15.048 32.9373 15.24 33.4813 15.24ZM43.2399 18V2.352H46.7679V15.024H53.7279V18H43.2399ZM60.1505 18L55.4225 2.352H59.1665L61.0385 9.648C61.2785 10.512 61.4865 11.352 61.6625 12.168C61.8545 12.968 62.0625 13.8 62.2865 14.664H62.3825C62.6385 13.8 62.8545 12.968 63.0305 12.168C63.2225 11.352 63.4305 10.512 63.6545 9.648L65.5025 2.352H69.1025L64.3985 18H60.1505ZM71.6611 18V2.352H82.0291V5.328H75.2131V8.472H80.9971V11.424H75.2131V15.024H82.2691V18H71.6611Z" fill="#FFFCF9"/>
<path d="M84.2838 5.724V2.6H91.7638L97.0438 7.33L102.104 2.6H109.254L101.004 10.3L106.064 14.876H109.364V18H101.884L96.6038 13.27L91.5438 18H84.3938L92.6438 10.3L87.5838 5.724H84.2838Z" fill="#EEAA2B"/>
</svg>
