<svg width="16" height="16" viewBox="0 0 16 16" fill="none" xmlns="http://www.w3.org/2000/svg">
<path d="M15.5 11V2C15.5 1.60218 15.342 1.22064 15.0607 0.93934C14.7794 0.658035 14.3978 0.5 14 0.5H5C4.60218 0.5 4.22064 0.658035 3.93934 0.93934C3.65804 1.22064 3.5 1.60218 3.5 2V11C3.5 11.3978 3.65804 11.7794 3.93934 12.0607C4.22064 12.342 4.60218 12.5 5 12.5H14C14.3978 12.5 14.7794 12.342 15.0607 12.0607C15.342 11.7794 15.5 11.3978 15.5 11ZM7.25 8L8.7725 10.0325L11 7.25L14 11H5M0.5 3.5V14C0.5 14.3978 0.658035 14.7794 0.93934 15.0607C1.22064 15.342 1.60218 15.5 2 15.5H12.5V14H2V3.5" fill="#FFFCF9"/>
</svg>
