<svg width="205" height="165" viewBox="0 0 205 165" fill="none" xmlns="http://www.w3.org/2000/svg">
<path d="M204.634 18.02H0.297302V143C0.297302 145.762 2.53588 148 5.2973 148H200.634C202.844 148 204.634 146.209 204.634 144V18.02Z" fill="#0D1418"/>
<path d="M16.4709 32.0479C16.6646 31.9312 16.8708 31.8417 17.0838 31.7816L17.2096 31.1755L18.2338 31.1573L18.3811 31.759C18.5952 31.8122 18.8048 31.8938 19.0031 32.0037L19.5209 31.6638L20.2585 32.3753L19.9378 32.9044C20.0545 33.0982 20.144 33.3044 20.2041 33.5174L20.8103 33.6432L20.8284 34.6674L20.2268 34.8147C20.1735 35.0288 20.0919 35.2384 19.982 35.4367L20.3219 35.9545L19.6104 36.6921L19.0813 36.3714C18.8875 36.4881 18.6813 36.5776 18.4683 36.6377L18.3426 37.2438L17.3183 37.262L17.171 36.6604C16.9569 36.6071 16.7473 36.5255 16.549 36.4156L16.0312 36.7555L15.2937 36.044L15.6143 35.5149C15.4976 35.3211 15.4081 35.1149 15.3481 34.9019L14.7419 34.7762L14.7238 33.7519L15.3254 33.6047C15.3786 33.3894 15.4602 33.1809 15.5701 32.9826L15.2314 32.4648L15.9429 31.7273L16.4709 32.0479ZM17.017 33.4132C16.5955 33.8505 16.6079 34.5462 17.0441 34.9676C17.4815 35.3891 18.1772 35.3767 18.5986 34.9405C19.0201 34.5042 19.0077 33.8074 18.5714 33.386C18.1352 32.9633 17.4396 32.9758 17.017 33.4132Z" fill="#262B30"/>
<path d="M24.973 60.7626H8.92965C8.01871 60.7626 7.28113 60.025 7.28113 59.1141C7.28113 58.2031 8.01985 57.4656 8.92965 57.4656H24.973C25.8839 57.4656 26.6215 58.2043 26.6215 59.1141C26.6215 60.0239 25.8839 60.7626 24.973 60.7626Z" fill="#262B30"/>
<path d="M24.973 52.3636H8.92965C8.01871 52.3636 7.28113 51.626 7.28113 50.7151C7.28113 49.8041 8.01985 49.0665 8.92965 49.0665H24.973C25.8839 49.0665 26.6215 49.8053 26.6215 50.7151C26.6215 51.6249 25.8839 52.3636 24.973 52.3636Z" fill="#262B30"/>
<path d="M24.973 44.6796H8.92965C8.01871 44.6796 7.28113 43.942 7.28113 43.0311C7.28113 42.1201 8.01985 41.3826 8.92965 41.3826H24.973C25.8839 41.3826 26.6215 42.1201 26.6215 43.0311C26.6215 43.942 25.8839 44.6796 24.973 44.6796Z" fill="#262B30"/>
<path d="M68.0769 37.2222H52.8811C51.9701 37.2222 51.2325 36.4835 51.2325 35.5737C51.2325 34.6627 51.9713 33.9252 52.8811 33.9252H68.0769C68.9878 33.9252 69.7254 34.6627 69.7254 35.5737C69.7254 36.4846 68.9878 37.2222 68.0769 37.2222Z" fill="#1BEFA0"/>
<path d="M68.0769 45.8522H52.8811C51.9701 45.8522 51.2325 45.1146 51.2325 44.2037C51.2325 43.2927 51.9713 42.5552 52.8811 42.5552H68.0769C68.9878 42.5552 69.7254 43.2927 69.7254 44.2037C69.7254 45.1146 68.9878 45.8522 68.0769 45.8522Z" fill="#262B30"/>
<path d="M68.0769 54.7712H52.8811C51.9701 54.7712 51.2325 54.0336 51.2325 53.1227C51.2325 52.2117 51.9713 51.4741 52.8811 51.4741H68.0769C68.9878 51.4741 69.7254 52.2117 69.7254 53.1227C69.7254 54.0325 68.9878 54.7712 68.0769 54.7712Z" fill="#EF3E36"/>
<path d="M61.595 72.0145H52.8811C51.9701 72.0145 51.2325 71.277 51.2325 70.366C51.2325 69.4551 51.9713 68.7175 52.8811 68.7175H61.595C62.5059 68.7175 63.2435 69.4551 63.2435 70.366C63.2435 71.2758 62.5059 72.0145 61.595 72.0145Z" fill="#1BEFA0"/>
<path d="M61.595 80.9527H52.8811C51.9701 80.9527 51.2325 80.2151 51.2325 79.3042C51.2325 78.3932 51.9713 77.6556 52.8811 77.6556H61.595C62.5059 77.6556 63.2435 78.3932 63.2435 79.3042C63.2435 80.214 62.5059 80.9527 61.595 80.9527Z" fill="#1BEFA0"/>
<path d="M87.492 80.9527H71.5144C70.6035 80.9527 69.8659 80.2151 69.8659 79.3042C69.8659 78.3932 70.6046 77.6556 71.5144 77.6556H87.492C88.403 77.6556 89.1405 78.3932 89.1405 79.3042C89.1405 80.214 88.4018 80.9527 87.492 80.9527Z" fill="#262B30"/>
<path d="M78.4552 88.9007H62.4776C61.5666 88.9007 60.829 88.1631 60.829 87.2521C60.829 86.3412 61.5666 85.6036 62.4776 85.6036H78.4552C79.3661 85.6036 80.1037 86.3412 80.1037 87.2521C80.1037 88.1619 79.365 88.9007 78.4552 88.9007Z" fill="#EF3E36"/>
<path d="M81.9947 97.967H71.0205C70.3984 97.967 69.8954 97.4629 69.8954 96.842V95.7962C69.8954 95.1742 70.3996 94.6711 71.0205 94.6711H81.9947C82.6167 94.6711 83.1198 95.1753 83.1198 95.7962V96.842C83.1198 97.4629 82.6156 97.967 81.9947 97.967Z" fill="#EF3E36"/>
<path d="M81.4713 115.735H71.5439C70.633 115.735 69.8954 114.996 69.8954 114.086C69.8954 113.175 70.633 112.438 71.5439 112.438H81.4713C82.3822 112.438 83.1198 113.175 83.1198 114.086C83.1198 114.996 82.3822 115.735 81.4713 115.735Z" fill="#EF3E36"/>
<path d="M81.4713 134.501H71.5439C70.633 134.501 69.8954 133.762 69.8954 132.852C69.8954 131.941 70.633 131.204 71.5439 131.204H81.4713C82.3822 131.204 83.1198 131.942 83.1198 132.852C83.1198 133.763 82.3822 134.501 81.4713 134.501Z" fill="#EF3E36"/>
<path d="M105.877 134.501H88.4721C87.5611 134.501 86.8235 133.762 86.8235 132.852C86.8235 131.941 87.5611 131.204 88.4721 131.204H105.877C106.788 131.204 107.526 131.942 107.526 132.852C107.526 133.763 106.787 134.501 105.877 134.501Z" fill="#EEAA2B"/>
<path d="M118.059 134.501H115.552C114.641 134.501 113.903 133.762 113.903 132.852C113.903 131.941 114.642 131.204 115.552 131.204H118.059C118.97 131.204 119.708 131.942 119.708 132.852C119.708 133.763 118.97 134.501 118.059 134.501Z" fill="#262B30"/>
<path d="M104.834 115.735H90.1251C89.2141 115.735 88.4766 114.996 88.4766 114.086C88.4766 113.175 89.2153 112.438 90.1251 112.438H104.834C105.745 112.438 106.482 113.175 106.482 114.086C106.482 114.996 105.745 115.735 104.834 115.735Z" fill="#262B30"/>
<path d="M137.088 123.973H90.1251C89.2141 123.973 88.4766 123.234 88.4766 122.324C88.4766 121.413 89.2153 120.676 90.1251 120.676H137.088C137.999 120.676 138.737 121.413 138.737 122.324C138.737 123.234 137.999 123.973 137.088 123.973Z" fill="#262B30"/>
<path d="M142.513 115.735H112.529C111.618 115.735 110.881 114.996 110.881 114.086C110.881 113.175 111.618 112.438 112.529 112.438H142.513C143.424 112.438 144.161 113.175 144.161 114.086C144.161 114.996 143.424 115.735 142.513 115.735Z" fill="#EEAA2B"/>
<path d="M102.033 97.967H88.565C87.943 97.967 87.4399 97.4629 87.4399 96.842V95.7962C87.4399 95.1742 87.9441 94.6711 88.565 94.6711H102.033C102.655 94.6711 103.158 95.1753 103.158 95.7962V96.842C103.158 97.4629 102.654 97.967 102.033 97.967Z" fill="#EEAA2B"/>
<path d="M112.784 97.967H108.651C108.029 97.967 107.526 97.4629 107.526 96.842V95.7962C107.526 95.1742 108.03 94.6711 108.651 94.6711H112.784C113.406 94.6711 113.909 95.1753 113.909 95.7962V96.842C113.91 97.4629 113.406 97.967 112.784 97.967Z" fill="#262B30"/>
<path d="M136.468 97.967H119.89C119.268 97.967 118.765 97.4629 118.765 96.842V95.7962C118.765 95.1742 119.269 94.6711 119.89 94.6711H136.468C137.09 94.6711 137.593 95.1753 137.593 95.7962V96.842C137.595 97.4629 137.09 97.967 136.468 97.967Z" fill="#262B30"/>
<path d="M89.2777 88.9007H85.7179C84.8069 88.9007 84.0693 88.1631 84.0693 87.2521C84.0693 86.3412 84.8081 85.6036 85.7179 85.6036H89.2777C90.1887 85.6036 90.9263 86.3412 90.9263 87.2521C90.9263 88.1619 90.1876 88.9007 89.2777 88.9007Z" fill="#1BEFA0"/>
<path d="M119.441 88.9007H96.7714C95.8604 88.9007 95.1229 88.1631 95.1229 87.2521C95.1229 86.3412 95.8616 85.6036 96.7714 85.6036H119.441C120.351 85.6036 121.089 86.3412 121.089 87.2521C121.089 88.1619 120.351 88.9007 119.441 88.9007Z" fill="#262B30"/>
<path d="M92.4218 37.2222H77.2259C76.315 37.2222 75.5774 36.4835 75.5774 35.5737C75.5774 34.6627 76.3161 33.9252 77.2259 33.9252H92.4218C93.3327 33.9252 94.0703 34.6627 94.0703 35.5737C94.0703 36.4846 93.3327 37.2222 92.4218 37.2222Z" fill="#EEAA2B"/>
<path d="M112.001 45.8522H77.2259C76.315 45.8522 75.5774 45.1146 75.5774 44.2037C75.5774 43.2927 76.3161 42.5552 77.2259 42.5552H112.001C112.912 42.5552 113.65 43.2927 113.65 44.2037C113.65 45.1146 112.912 45.8522 112.001 45.8522Z" fill="#1BEFA0"/>
<path d="M149.441 54.7712H77.2259C76.315 54.7712 75.5774 54.0336 75.5774 53.1227C75.5774 52.2117 76.3161 51.4741 77.2259 51.4741H149.441C150.352 51.4741 151.09 52.2117 151.09 53.1227C151.09 54.0325 150.352 54.7712 149.441 54.7712Z" fill="#262B30"/>
<path d="M111.277 61.0527H77.2271C76.3161 61.0527 75.5786 60.3151 75.5786 59.4042C75.5786 58.4932 76.3173 57.7556 77.2271 57.7556H111.277C112.188 57.7556 112.926 58.4932 112.926 59.4042C112.926 60.3151 112.187 61.0527 111.277 61.0527Z" fill="#262B30"/>
<path d="M104.311 72.0145H70.2613C69.3504 72.0145 68.6128 71.277 68.6128 70.366C68.6128 69.4551 69.3515 68.7175 70.2613 68.7175H104.311C105.222 68.7175 105.96 69.4551 105.96 70.366C105.96 71.2758 105.221 72.0145 104.311 72.0145Z" fill="#EEAA2B"/>
<path d="M123.373 72.0145H111.959C111.048 72.0145 110.311 71.277 110.311 70.366C110.311 69.4551 111.048 68.7175 111.959 68.7175H123.373C124.284 68.7175 125.022 69.4551 125.022 70.366C125.022 71.2758 124.284 72.0145 123.373 72.0145Z" fill="#EF3E36"/>
<path d="M152.554 71.9612H130.994C130.083 71.9612 129.345 71.2236 129.345 70.3127C129.345 69.4018 130.084 68.6642 130.994 68.6642H152.554C153.465 68.6642 154.202 69.4018 154.202 70.3127C154.202 71.2225 153.465 71.9612 152.554 71.9612Z" fill="#1BEFA0"/>
<path d="M181.894 71.9612H160.334C159.423 71.9612 158.685 71.2236 158.685 70.3127C158.685 69.4018 159.423 68.6642 160.334 68.6642H181.894C182.805 68.6642 183.542 69.4018 183.542 70.3127C183.542 71.2225 182.805 71.9612 181.894 71.9612Z" fill="#262B30"/>
<path d="M18.0254 69.6532H8.93075C8.01981 69.6532 7.28223 68.9145 7.28223 68.0047C7.28223 67.0938 8.02095 66.3562 8.93075 66.3562H18.0254C18.9363 66.3562 19.6739 67.0938 19.6739 68.0047C19.6739 68.9157 18.9363 69.6532 18.0254 69.6532Z" fill="#262B30"/>
<path d="M15.3028 96.3263H8.92965C8.01871 96.3263 7.28113 95.5876 7.28113 94.6778C7.28113 93.7669 8.01985 93.0293 8.92965 93.0293H15.3028C16.2137 93.0293 16.9513 93.7669 16.9513 94.6778C16.9524 95.5888 16.2137 96.3263 15.3028 96.3263Z" fill="#262B30"/>
<path d="M26.6215 78.5451H8.92965C8.01871 78.5451 7.28113 77.8064 7.28113 76.8966C7.28113 75.9857 8.01985 75.248 8.92965 75.248H26.6215C27.5324 75.248 28.27 75.9868 28.27 76.8966C28.27 77.8064 27.5324 78.5451 26.6215 78.5451Z" fill="#262B30"/>
<path d="M23.5182 87.4357H8.93075C8.01981 87.4357 7.28223 86.6981 7.28223 85.7872C7.28223 84.8762 8.02095 84.1387 8.93075 84.1387H23.5182C24.4291 84.1387 25.1667 84.8762 25.1667 85.7872C25.1667 86.697 24.428 87.4357 23.5182 87.4357Z" fill="#262B30"/>
<path d="M45.4327 35.5736C45.4327 36.4982 44.6827 37.2482 43.7581 37.2482C42.8336 37.2482 42.0836 36.4982 42.0836 35.5736C42.0836 34.6491 42.8336 33.899 43.7581 33.899C44.6827 33.899 45.4327 34.6491 45.4327 35.5736Z" fill="#EEAA2B"/>
<path d="M43.7581 28.4528C44.683 28.4528 45.4327 27.7031 45.4327 26.7782C45.4327 25.8534 44.683 25.1036 43.7581 25.1036C42.8333 25.1036 42.0836 25.8534 42.0836 26.7782C42.0836 27.7031 42.8333 28.4528 43.7581 28.4528Z" fill="#EEAA2B"/>
<path d="M43.7581 45.8522C44.683 45.8522 45.4327 45.1025 45.4327 44.1776C45.4327 43.2528 44.683 42.5031 43.7581 42.5031C42.8333 42.5031 42.0836 43.2528 42.0836 44.1776C42.0836 45.1025 42.8333 45.8522 43.7581 45.8522Z" fill="#EEAA2B"/>
<path d="M43.7581 54.7973C44.683 54.7973 45.4327 54.0475 45.4327 53.1227C45.4327 52.1979 44.683 51.4481 43.7581 51.4481C42.8333 51.4481 42.0836 52.1979 42.0836 53.1227C42.0836 54.0475 42.8333 54.7973 43.7581 54.7973Z" fill="#EEAA2B"/>
<path d="M43.7581 63.7413C44.683 63.7413 45.4327 62.9915 45.4327 62.0667C45.4327 61.1418 44.683 60.3921 43.7581 60.3921C42.8333 60.3921 42.0836 61.1418 42.0836 62.0667C42.0836 62.9915 42.8333 63.7413 43.7581 63.7413Z" fill="#EEAA2B"/>
<path d="M45.4327 71.0119C45.4327 71.9364 44.6827 72.6864 43.7581 72.6864C42.8336 72.6864 42.0836 71.9364 42.0836 71.0119C42.0836 70.0873 42.8336 69.3373 43.7581 69.3373C44.6827 69.3373 45.4327 70.0873 45.4327 71.0119Z" fill="#EEAA2B"/>
<path d="M43.7581 81.6302C44.683 81.6302 45.4327 80.8804 45.4327 79.9556C45.4327 79.0307 44.683 78.281 43.7581 78.281C42.8333 78.281 42.0836 79.0307 42.0836 79.9556C42.0836 80.8804 42.8333 81.6302 43.7581 81.6302Z" fill="#EEAA2B"/>
<path d="M43.7581 90.5753C44.683 90.5753 45.4327 89.8256 45.4327 88.9008C45.4327 87.9759 44.683 87.2262 43.7581 87.2262C42.8333 87.2262 42.0836 87.9759 42.0836 88.9008C42.0836 89.8256 42.8333 90.5753 43.7581 90.5753Z" fill="#EEAA2B"/>
<path d="M45.4327 97.8447C45.4327 98.7693 44.6827 99.5193 43.7581 99.5193C42.8336 99.5193 42.0836 98.7693 42.0836 97.8447C42.0836 96.9202 42.8336 96.1702 43.7581 96.1702C44.6827 96.1702 45.4327 96.9202 45.4327 97.8447Z" fill="#EEAA2B"/>
<path d="M45.4327 106.79C45.4327 107.714 44.6827 108.464 43.7581 108.464C42.8336 108.464 42.0836 107.714 42.0836 106.79C42.0836 105.865 42.8336 105.115 43.7581 105.115C44.6827 105.115 45.4327 105.865 45.4327 106.79Z" fill="#EEAA2B"/>
<path d="M43.7581 117.409C44.683 117.409 45.4327 116.66 45.4327 115.735C45.4327 114.81 44.683 114.06 43.7581 114.06C42.8333 114.06 42.0836 114.81 42.0836 115.735C42.0836 116.66 42.8333 117.409 43.7581 117.409Z" fill="#EEAA2B"/>
<path d="M45.4327 124.679C45.4327 125.603 44.6827 126.353 43.7581 126.353C42.8336 126.353 42.0836 125.603 42.0836 124.679C42.0836 123.754 42.8336 123.004 43.7581 123.004C44.6827 123.004 45.4327 123.754 45.4327 124.679Z" fill="#EEAA2B"/>
<path d="M43.7581 135.298C44.683 135.298 45.4327 134.549 45.4327 133.624C45.4327 132.699 44.683 131.949 43.7581 131.949C42.8333 131.949 42.0836 132.699 42.0836 133.624C42.0836 134.549 42.8333 135.298 43.7581 135.298Z" fill="#EEAA2B"/>
<path d="M200.289 0.297607H6.41892C3.03804 0.297607 0.297302 3.03834 0.297302 6.41922V18.02H204.634V4.64268C204.634 2.24298 202.689 0.297607 200.289 0.297607Z" fill="#262B30"/>
<path d="M10.8568 12.1285C12.2009 12.1285 13.2905 11.0389 13.2905 9.69481C13.2905 8.35072 12.2009 7.26111 10.8568 7.26111C9.51275 7.26111 8.42316 8.35072 8.42316 9.69481C8.42316 11.0389 9.51275 12.1285 10.8568 12.1285Z" fill="#0D1418"/>
<path d="M20.7809 9.69481C20.7809 11.0397 19.691 12.1285 18.3472 12.1285C17.0023 12.1285 15.9135 11.0386 15.9135 9.69481C15.9135 8.35107 17.0035 7.26111 18.3472 7.26111C19.691 7.25998 20.7809 8.34994 20.7809 9.69481Z" fill="#0D1418"/>
<path d="M28.27 9.69481C28.27 11.0397 27.1801 12.1285 25.8364 12.1285C24.4915 12.1285 23.4026 11.0386 23.4026 9.69481C23.4026 8.35107 24.4926 7.26111 25.8364 7.26111C27.1812 7.25998 28.27 8.34994 28.27 9.69481Z" fill="#0D1418"/>
<path d="M43.7581 145.971L61.0296 164.643L76.708 145.971H43.7581Z" fill="#0D1418"/>
<path d="M199.093 147.999C199.085 147.957 199.734 148.054 200.881 147.667C201.447 147.471 202.13 147.125 202.786 146.521C203.442 145.927 204.064 145.05 204.373 143.918C204.541 143.354 204.581 142.736 204.569 142.076C204.566 141.415 204.564 140.721 204.562 139.991C204.557 138.532 204.553 136.938 204.548 135.211C204.54 131.754 204.531 127.768 204.521 123.282C204.498 105.322 204.467 79.3506 204.427 47.2595C204.421 39.2355 204.415 30.8287 204.408 22.0694C204.404 17.6892 204.402 13.2218 204.399 8.66941C204.384 7.5432 204.429 6.36149 204.365 5.26587C204.239 4.17479 203.782 3.1143 203.029 2.29627C202.295 1.46125 201.275 0.892482 200.186 0.653419C199.105 0.456276 197.891 0.574092 196.72 0.541235C177.849 0.550299 157.686 0.559366 136.468 0.56843C115.251 0.574095 92.978 0.579759 69.8886 0.585424C58.3444 0.586557 46.5951 0.588838 34.6714 0.589971C28.7096 0.589971 22.7047 0.591095 16.659 0.591095C13.6361 0.591095 10.6042 0.591095 7.56207 0.591095C6.81542 0.602425 6.00986 0.563905 5.30853 0.618289C4.59021 0.689668 3.88889 0.915131 3.2612 1.27203C2.00131 1.98129 1.05751 3.23325 0.733472 4.64611C0.501207 5.61256 0.624704 6.70251 0.591847 7.76753V10.9603C0.591847 13.087 0.591847 15.208 0.591847 17.3256C0.591847 21.5596 0.591839 25.7744 0.590706 29.9699C0.589573 38.3586 0.589574 46.6669 0.588441 54.8812C0.585042 71.3109 0.582781 87.3689 0.579382 102.967C0.577116 110.765 0.574844 118.449 0.573711 126.008C0.572578 129.786 0.571456 133.534 0.570323 137.248C0.577121 139.098 0.552195 140.971 0.585052 142.778C0.664363 144.535 1.71918 146.183 3.2306 147.036C3.97952 147.476 4.84401 147.696 5.70509 147.724C6.61036 147.726 7.51335 147.73 8.41409 147.732C10.2201 147.733 12.0182 147.733 13.8061 147.734C17.3829 147.735 20.9247 147.738 24.4291 147.739C31.4378 147.742 38.2982 147.746 44.9999 147.749H45.1075L45.1812 147.827C50.6162 153.549 55.8892 159.1 60.999 164.479L60.6444 164.49C65.4948 158.722 70.1457 153.191 74.6313 147.857L74.6982 147.776H74.8024C113.049 147.818 144.117 147.851 165.635 147.875C176.384 147.901 184.744 147.921 190.429 147.935C193.26 147.948 195.423 147.96 196.888 147.966C198.346 147.978 199.093 147.999 199.093 147.999C199.093 147.999 198.346 148.022 196.89 148.032C195.425 148.039 193.262 148.05 190.431 148.064C184.747 148.077 176.386 148.098 165.637 148.124C144.12 148.148 113.051 148.181 74.8046 148.223L74.9757 148.143C70.497 153.484 65.8539 159.021 61.0115 164.796L60.8404 165L60.6568 164.807C55.5413 159.434 50.2615 153.889 44.8197 148.173L45.001 148.251C38.2993 148.254 31.439 148.258 24.4302 148.261C20.9258 148.262 17.3841 148.264 13.8072 148.266C12.0182 148.267 10.2212 148.267 8.41523 148.268C7.50996 148.266 6.60243 148.263 5.69262 148.262C4.7443 148.233 3.79031 147.989 2.96435 147.505C1.2977 146.567 0.134121 144.75 0.0434808 142.812C0.00835768 140.94 0.0321354 139.114 0.0242044 137.249C0.0230714 133.535 0.0219489 129.787 0.0208159 126.009C0.0185499 118.451 0.0162876 110.767 0.0140216 102.968C0.0117556 87.37 0.00834426 71.312 0.00494526 54.8823C0.00381225 46.6681 0.0038135 38.3597 0.0026805 29.971C0.0026805 25.7766 0.00268976 21.5607 0.00155676 17.3267C0.00155676 15.2102 0.00155676 13.0881 0.00155676 10.9615V7.76867V6.17C-0.00864027 5.64315 0.0298824 5.054 0.157912 4.51356C0.518207 2.93868 1.56849 1.54848 2.96888 0.759914C3.66681 0.36223 4.44858 0.111839 5.24735 0.0325286C6.06651 -0.0275206 6.78597 0.0166654 7.55981 0.00306938C10.6019 0.00306938 13.635 0.00306938 16.6567 0.00306938C22.7024 0.00306938 28.7073 0.00419312 34.6692 0.00419312C46.5929 0.00532612 58.341 0.00760692 69.8863 0.00873993C92.9758 0.0144049 115.248 0.0200693 136.466 0.0257343C157.684 0.0347983 177.847 0.0438474 196.718 0.0529114C197.901 0.0903005 199.055 -0.0388624 200.284 0.179807C201.474 0.441531 202.585 1.06582 203.385 1.97562C204.204 2.86843 204.702 4.0275 204.837 5.21715C204.905 6.41474 204.855 7.52281 204.87 8.67167C204.867 13.2241 204.864 17.6926 204.861 22.0717C204.854 30.8309 204.848 39.2378 204.842 47.2617C204.802 79.3529 204.77 105.325 204.748 123.284C204.737 127.771 204.728 131.757 204.72 135.213C204.716 136.94 204.711 138.535 204.707 139.993C204.705 140.722 204.702 141.418 204.7 142.078C204.709 142.736 204.663 143.381 204.486 143.952C204.162 145.106 203.518 145.993 202.845 146.589C202.171 147.195 201.475 147.537 200.899 147.726C200.32 147.917 199.86 147.972 199.554 147.994C199.247 148.002 199.093 147.999 199.093 147.999Z" fill="#262B30"/>
</svg>
